<?xml version="1.0" encoding="UTF-8"?>
<svg version="1.1" xmlns="http://www.w3.org/2000/svg" width="597" height="418">
<path d="M0 0 C3.90548585 0.00513087 7.81096319 0.00034889 11.7164495 -0.00277233 C18.27333641 -0.00639292 24.83017802 -0.00166471 31.38705802 0.00790882 C38.91581635 0.01877599 46.44446616 0.01527268 53.97322184 0.00425601 C60.48844649 -0.00488807 67.0036389 -0.00606731 73.51886791 -0.00086665 C77.38749418 0.00221605 81.25606987 0.00276677 85.12469268 -0.00393963 C135.58527675 -0.07936854 135.58527675 -0.07936854 152.12753654 8.26865101 C153.86477427 8.75435801 155.61583005 9.19347009 157.37753654 9.58115101 C163.35057018 11.12520052 168.03185975 13.85957147 173.12753654 17.26865101 C174.76722404 18.35146351 174.76722404 18.35146351 176.44003654 19.45615101 C177.32691154 20.05427601 178.21378654 20.65240101 179.12753654 21.26865101 C180.07628654 21.80490101 181.02503654 22.34115101 182.00253654 22.89365101 C182.70378654 23.34740101 183.40503654 23.80115101 184.12753654 24.26865101 C184.12753654 24.92865101 184.12753654 25.58865101 184.12753654 26.26865101 C186.10753654 27.25865101 186.10753654 27.25865101 188.12753654 28.26865101 C188.12753654 28.92865101 188.12753654 29.58865101 188.12753654 30.26865101 C189.11753654 30.59865101 190.10753654 30.92865101 191.12753654 31.26865101 C191.12753654 31.92865101 191.12753654 32.58865101 191.12753654 33.26865101 C192.11753654 33.59865101 193.10753654 33.92865101 194.12753654 34.26865101 C196.764292 37.38184991 198.91006774 40.84871976 201.12753654 44.26865101 C201.72179435 45.17099476 202.31605216 46.07333851 202.92831779 47.00302601 C207.39324374 54.17066767 210.22942273 61.51284649 212.86581779 69.48349476 C213.59961135 71.68487545 214.37783084 73.874174 215.26425529 76.01865101 C216.1101437 78.22331946 216.44699033 79.988564 216.62753654 82.33115101 C216.94530925 85.80395283 217.46977705 89.15693253 218.12753654 92.58115101 C218.99254062 97.73339746 219.42822009 102.81086018 219.68173575 108.02035999 C219.72384618 108.88362872 219.7659566 109.74689745 219.8093431 110.63632584 C220.32723462 122.39555875 220.27159799 134.16065836 220.26034904 145.92880726 C220.26102489 148.45545428 220.26199724 150.98210125 220.26324821 153.50874805 C220.26489755 159.4388781 220.26145184 165.36899011 220.25609744 171.29911751 C220.25234208 175.99054804 220.25367549 180.68195758 220.25790763 185.37338734 C220.26375183 191.91281133 220.26459163 198.45221531 220.2613523 204.99164104 C220.26069261 207.45721345 220.26147731 209.92278674 220.26383185 212.38835812 C220.29213487 250.33571863 220.29213487 250.33571863 217.31503654 266.14365101 C217.1390795 267.11125355 216.96312247 268.07885609 216.78183341 269.07577991 C214.78715279 279.65788002 211.82662317 289.55347586 207.12753654 299.26865101 C206.84394279 299.90931507 206.56034904 300.54997913 206.26816154 301.21005726 C203.38883812 307.46121994 199.29586457 312.82214426 195.12753654 318.26865101 C194.49460685 319.11040882 193.86167716 319.95216663 193.20956779 320.81943226 C190.94244173 323.48638918 188.54252605 325.57740059 185.81503654 327.76865101 C184.91140372 328.50083851 184.00777091 329.23302601 183.07675529 329.98740101 C177.27649015 334.47396371 171.67572342 338.25062885 165.00253654 341.33115101 C164.26261466 341.67549183 163.52269279 342.01983265 162.76034904 342.37460804 C156.37736212 345.27859196 149.92073033 347.51227122 143.12753654 349.26865101 C141.91517325 349.58769398 141.91517325 349.58769398 140.67831779 349.91318226 C135.87704293 351.07788942 131.11746842 351.64500991 126.19394279 352.02255726 C124.06769206 352.15761355 124.06769206 352.15761355 122.12753654 353.26865101 C113.62695545 354.40090166 105.06252593 354.41240568 96.50302482 354.39804554 C95.197275 354.39979786 93.89152518 354.40155018 92.54620719 354.4033556 C89.00062666 354.40787062 85.45507561 354.40616482 81.90949464 354.40297651 C78.17381476 354.4004209 74.43813718 354.40279938 70.70245719 354.40436268 C64.43024602 354.40617556 58.15804668 354.40380175 51.88583732 354.3990221 C44.66951084 354.39358595 37.45321265 354.39534101 30.23688686 354.40084851 C24.00632659 354.40541055 17.77577475 354.40601501 11.54521334 354.40340984 C7.83934409 354.40186337 4.13348806 354.40160788 0.4276197 354.40494633 C-3.71132434 354.40841524 -7.8502209 354.40358514 -11.98916268 354.39804554 C-13.19167672 354.40006977 -14.39419076 354.402094 -15.63314462 354.40417957 C-38.79391246 354.34720201 -38.79391246 354.34720201 -40.87246346 352.26865101 C-42.80390738 351.93925747 -44.74330664 351.65622382 -46.68496346 351.39365101 C-63.23844695 348.89535111 -78.88981558 343.63876567 -92.87246346 334.26865101 C-93.86246346 333.60865101 -94.85246346 332.94865101 -95.87246346 332.26865101 C-95.87246346 331.60865101 -95.87246346 330.94865101 -95.87246346 330.26865101 C-97.19246346 329.93865101 -98.51246346 329.60865101 -99.87246346 329.26865101 C-99.87246346 328.60865101 -99.87246346 327.94865101 -99.87246346 327.26865101 C-100.44480721 327.02759632 -101.01715096 326.78654163 -101.60683846 326.53818226 C-116.17246901 318.37640652 -124.22579777 297.01795673 -128.99746346 282.01865101 C-134.48460117 260.84681612 -135.48766994 239.59452325 -135.40976548 217.84762979 C-135.39938926 214.02201297 -135.40909751 210.1964276 -135.41531014 206.3708086 C-135.4225179 199.95427891 -135.41318355 193.5379354 -135.39394784 187.12143421 C-135.37220182 179.78450799 -135.37924199 172.44802714 -135.40125346 165.1111117 C-135.41961802 158.72546715 -135.42186461 152.33995381 -135.41149879 145.95429128 C-135.40537628 142.17828269 -135.40410577 138.4024807 -135.41764474 134.62648678 C-135.53830063 95.65199939 -131.26050939 57.3490883 -102.87246346 28.26865101 C-100.61482476 26.16152155 -98.29363283 24.18409309 -95.87246346 22.26865101 C-95.12996346 21.64990101 -94.38746346 21.03115101 -93.62246346 20.39365101 C-91.87246346 19.26865101 -91.87246346 19.26865101 -88.87246346 19.26865101 C-88.87246346 18.60865101 -88.87246346 17.94865101 -88.87246346 17.26865101 C-78.50284631 11.75445459 -67.42885913 6.61910437 -55.87246346 4.26865101 C-55.16734628 4.10880726 -54.46222909 3.94896351 -53.73574471 3.78427601 C-51.12342821 3.21431604 -48.50504464 2.73679526 -45.87246346 2.26865101 C-44.43402833 2.00837116 -44.43402833 2.00837116 -42.9665339 1.74283314 C-28.73892597 -0.41644921 -14.35244114 -0.02481595 0 0 Z M-87.87246346 51.26865101 C-88.4383619 51.81005726 -89.00426034 52.35146351 -89.58730721 52.90927601 C-111.45910354 75.88336446 -109.35350728 116.23737902 -109.27090096 145.30380726 C-109.27293194 147.88953705 -109.27585177 150.47526627 -109.27959847 153.06099415 C-109.28397302 158.42983585 -109.27805199 163.79851264 -109.26357675 169.16733265 C-109.24725553 175.28978738 -109.25256363 181.41194202 -109.26905596 187.53438956 C-109.2845447 193.5347678 -109.28260951 199.53500464 -109.27391076 205.53540325 C-109.27194376 208.03902131 -109.27424094 210.54264732 -109.28134942 213.04625607 C-109.31011735 226.01552046 -108.94108655 238.82065849 -107.55459237 251.72348499 C-107.44104598 252.79797681 -107.32749959 253.87246862 -107.2105124 254.9795208 C-105.44679098 269.81099278 -101.72586128 284.11562 -92.87246346 296.26865101 C-92.13250131 297.34010365 -92.13250131 297.34010365 -91.37759042 298.43320179 C-81.29945013 312.95005607 -65.56184283 320.0003253 -48.87246346 324.26865101 C-48.07453378 324.48134632 -47.27660409 324.69404163 -46.45449471 324.91318226 C-41.63489364 326.09888943 -36.84218546 326.65766642 -31.89722562 327.03356075 C-29.96290702 327.18389967 -28.02949089 327.3467022 -26.09760213 327.52557659 C-19.1594902 328.16205468 -12.30145074 328.41224033 -5.33657479 328.39804554 C-3.71238626 328.40067402 -3.71238626 328.40067402 -2.05538583 328.4033556 C1.47826144 328.40771234 5.01185762 328.40486041 8.54550529 328.40146351 C11.01460633 328.40213778 13.48370732 328.40310884 15.95280814 328.40436268 C21.10261017 328.40583079 26.25239475 328.40371164 31.40219474 328.3990221 C38.01792462 328.39329225 44.63361423 328.39662986 51.24934268 328.40259457 C56.33547119 328.40619605 61.42159002 328.40506408 66.5077188 328.40246677 C68.94909331 328.40179806 71.39046869 328.40262399 73.83184218 328.40494633 C77.22624803 328.40746962 80.62058689 328.40363837 84.01498771 328.39804554 C85.03047187 328.40006977 86.04595603 328.402094 87.09221244 328.40417957 C88.01021628 328.40135975 88.92822013 328.39853992 89.87404227 328.39563465 C90.67608683 328.39525763 91.47813138 328.3948806 92.30448031 328.39449215 C94.14731877 328.46778016 94.14731877 328.46778016 95.12753654 327.26865101 C95.22459619 325.66831388 95.25125267 324.06366959 95.25058436 322.460392 C95.25257541 321.41338228 95.25456646 320.36637256 95.25661784 319.28763527 C95.25224858 317.5410778 95.25224858 317.5410778 95.24779105 315.75923634 C95.24864548 314.5333162 95.2494999 313.30739607 95.25038022 312.04432684 C95.25174846 308.62609293 95.24860079 305.20791557 95.24360216 301.78968847 C95.23930111 298.10937172 95.24074383 294.42905685 95.24150443 290.74873829 C95.24202989 284.36720264 95.23888084 277.98567718 95.23326659 271.6041441 C95.22515451 262.37741255 95.22253667 253.15068595 95.2212786 243.92395122 C95.21908762 228.95575916 95.21242629 213.98757254 95.20297599 199.01938343 C95.19380306 184.4754384 95.18672164 169.93149483 95.18246818 155.38754749 C95.18220545 154.49171154 95.18194273 153.59587559 95.18167204 152.6728931 C95.18036705 148.17894237 95.17910333 143.68499162 95.17786014 139.19104087 C95.1674861 101.88357375 95.14986654 64.5761128 95.12753654 27.26865101 C78.70531227 27.15105328 62.28322775 27.06329341 45.86068225 27.00959015 C38.23277369 26.98397505 30.60512902 26.94915104 22.97739005 26.89145374 C16.31719899 26.8410998 9.6571993 26.80923929 2.99682313 26.79820853 C-0.51915886 26.79177602 -4.03459415 26.77702372 -7.55039811 26.74000072 C-37.3198923 26.43924726 -65.75213834 29.57149732 -87.87246346 51.26865101 Z M121.12753654 28.26865101 C121.12753654 126.27865101 121.12753654 224.28865101 121.12753654 325.26865101 C138.130104 325.26865101 156.40588188 318.79602788 169.12753654 307.26865101 C169.12753654 306.60865101 169.12753654 305.94865101 169.12753654 305.26865101 C170.01505607 304.88579945 170.01505607 304.88579945 170.92050529 304.49521351 C181.57305451 298.57503571 186.17277449 281.88366542 189.40986609 270.90784168 C194.14315955 253.50143445 193.5781418 235.24055553 193.53051305 217.35893917 C193.52277517 213.52915467 193.53000034 209.6993888 193.53467155 205.86960316 C193.54008888 199.44512458 193.53304454 193.02075036 193.51864982 186.59628773 C193.50233112 179.22930741 193.50762251 171.86257643 193.52412903 164.49560213 C193.53786002 158.10507315 193.53960758 151.71461805 193.53181303 145.32407904 C193.52719951 141.53592358 193.52633253 137.74788424 193.53642249 133.95973682 C193.59897582 106.75996375 192.11611462 82.60399253 179.12753654 58.26865101 C178.46753654 58.26865101 177.80753654 58.26865101 177.12753654 58.26865101 C176.88003654 57.53517445 176.63253654 56.80169788 176.37753654 56.04599476 C172.6180888 47.69297182 163.99283692 42.33814077 156.12753654 38.26865101 C155.28577872 37.82779163 154.44402091 37.38693226 153.57675529 36.93271351 C143.19833858 31.8588209 132.56900272 29.53992503 121.12753654 28.26865101 Z " fill="#090909" transform="translate(224.87246346473694,28.731348991394043)"/>
<path d="M0 0 C2.3046875 1.0234375 2.3046875 1.0234375 4 2 C4 2.66 4 3.32 4 4 C5.32 4.66 6.64 5.32 8 6 C8 6.66 8 7.32 8 8 C8.99 8.33 9.98 8.66 11 9 C11 9.66 11 10.32 11 11 C11.58910156 11.26167969 12.17820313 11.52335938 12.78515625 11.79296875 C15.11785434 13.0642275 16.60354368 14.40230531 18.4375 16.3125 C19.34628906 17.24835938 19.34628906 17.24835938 20.2734375 18.203125 C20.84320313 18.79609375 21.41296875 19.3890625 22 20 C22.845625 20.845625 23.69125 21.69125 24.5625 22.5625 C25.366875 23.366875 26.17125 24.17125 27 25 C27.54140625 25.51820313 28.0828125 26.03640625 28.640625 26.5703125 C30.12966666 28.01064719 31.56877193 29.50220318 33 31 C33 31.66 33 32.32 33 33 C33.58652344 33.27070313 34.17304688 33.54140625 34.77734375 33.8203125 C39.55917808 36.35829838 44.17919112 40.35396184 47 45 C47 45.66 47 46.32 47 47 C47.66 47 48.32 47 49 47 C50.23802836 49.47605673 50.34590964 51.35907812 50.5 54.125 C50.60828125 55.49011719 50.60828125 55.49011719 50.71875 56.8828125 C48.86348882 64.92899957 39.37898 71.78134978 33.70703125 77.4609375 C32.83858078 78.33271637 31.97013031 79.20449524 31.07536316 80.10269165 C29.25215414 81.93093362 27.42761463 83.75784964 25.60180664 85.58349609 C22.80522226 88.38228347 20.01675219 91.18899292 17.22851562 93.99609375 C15.45101028 95.77653044 13.67303206 97.55649519 11.89453125 99.3359375 C11.0621846 100.17546967 10.22983795 101.01500183 9.37226868 101.87997437 C8.59433456 102.65483185 7.81640045 103.42968933 7.01489258 104.22802734 C6.33429276 104.91005219 5.65369293 105.59207703 4.95246887 106.29476929 C1.17948924 109.58998226 -1.89964461 110.44716347 -6.96875 110.32421875 C-10.31551204 109.79002404 -12.44251471 108.13123774 -15 106 C-17.34693138 102.47960293 -17.32723764 100.79942991 -17.375 96.625 C-17.40335938 95.50351563 -17.43171875 94.38203125 -17.4609375 93.2265625 C-16.62304183 87.3612928 -12.09443627 83.98945072 -8 80 C-7.443125 79.401875 -6.88625 78.80375 -6.3125 78.1875 C-5 77 -5 77 -3 77 C-3 76.34 -3 75.68 -3 75 C-1.625 73.375 -1.625 73.375 0 72 C0.66 72 1.32 72 2 72 C2.268125 71.360625 2.53625 70.72125 2.8125 70.0625 C4 68 4 68 7 67 C7 66.34 7 65.68 7 65 C9.375 62.375 9.375 62.375 12 60 C12.66 60 13.32 60 14 60 C14 59.34 14 58.68 14 58 C14.99 57.34 15.98 56.68 17 56 C15.4975457 52.4567789 13.43747735 50.22928476 10.6875 47.5625 C9.54861328 46.45068359 9.54861328 46.45068359 8.38671875 45.31640625 C7.59910156 44.55199219 6.81148437 43.78757813 6 43 C5.26910156 42.26007813 4.53820312 41.52015625 3.78515625 40.7578125 C1.43278061 38.42853171 -0.96227824 36.17460936 -3.390625 33.92578125 C-5.01095043 32.38858327 -6.63072839 30.85080803 -8.25 29.3125 C-9.49136719 28.18424805 -9.49136719 28.18424805 -10.7578125 27.03320312 C-15.6610043 22.31086676 -17.96887756 19.0973587 -18.14379883 12.18969727 C-17.82913453 7.39814536 -17.00790064 4.95750561 -13.5 1.625 C-8.93842267 -0.49287519 -4.95971416 -0.70385382 0 0 Z " fill="#0A0A0A" transform="translate(223,151)"/>
<path d="" fill="#000000" transform="translate(0,0)"/>
<path d="" fill="#FFFFFF" transform="translate(0,0)"/>
<path d="" fill="#000000" transform="translate(0,0)"/>
<path d="" fill="#000000" transform="translate(0,0)"/>
<path d="" fill="#000000" transform="translate(0,0)"/>
</svg>
