<?xml version="1.0" encoding="UTF-8"?>
<svg version="1.1" xmlns="http://www.w3.org/2000/svg" width="597" height="418">
<path d="M0 0 C1.30574982 -0.00175232 2.61149963 -0.00350464 3.95681763 -0.00531006 C7.50239815 -0.00982508 11.04794921 -0.00811928 14.59353018 -0.00493097 C18.32921006 -0.00237536 22.06488764 -0.00475384 25.80056763 -0.00631714 C32.07277879 -0.00813002 38.34497814 -0.00575621 44.6171875 -0.00097656 C51.83351398 0.00445959 59.04981217 0.00270453 66.26613796 -0.00280297 C72.49669823 -0.00736501 78.72725007 -0.00796947 84.95781147 -0.0053643 C88.66368073 -0.00381783 92.36953676 -0.00356234 96.07540512 -0.00690079 C100.21434915 -0.0103697 104.35324571 -0.0055396 108.4921875 0 C109.69470154 -0.00202423 110.89721558 -0.00404846 112.13616943 -0.00613403 C135.29693728 0.05084353 135.29693728 0.05084353 137.37548828 2.12939453 C139.3069322 2.45878807 141.24633146 2.74182172 143.18798828 3.00439453 C159.74147177 5.50269443 175.3928404 10.75927987 189.37548828 20.12939453 C190.36548828 20.78939453 191.35548828 21.44939453 192.37548828 22.12939453 C192.37548828 22.78939453 192.37548828 23.44939453 192.37548828 24.12939453 C193.69548828 24.45939453 195.01548828 24.78939453 196.37548828 25.12939453 C196.37548828 25.78939453 196.37548828 26.44939453 196.37548828 27.12939453 C196.94783203 27.37044922 197.52017578 27.61150391 198.10986328 27.85986328 C212.67549383 36.02163902 220.72882259 57.38008881 225.50048828 72.37939453 C230.98762599 93.55122942 231.99069476 114.80352229 231.9127903 136.55041575 C231.90241408 140.37603257 231.91212233 144.20161794 231.91833496 148.02723694 C231.92554271 154.44376663 231.91620837 160.86011014 231.89697266 167.27661133 C231.87522664 174.61353755 231.88226681 181.9500184 231.90427828 189.28693384 C231.92264284 195.67257839 231.92488942 202.05809173 231.9145236 208.44375426 C231.90840109 212.21976285 231.90713059 215.99556484 231.92066956 219.77155876 C232.04132545 258.74604615 227.76353421 297.04895724 199.37548828 326.12939453 C197.11784958 328.23652399 194.79665765 330.21395245 192.37548828 332.12939453 C191.63298828 332.74814453 190.89048828 333.36689453 190.12548828 334.00439453 C188.37548828 335.12939453 188.37548828 335.12939453 185.37548828 335.12939453 C185.37548828 335.78939453 185.37548828 336.44939453 185.37548828 337.12939453 C175.00587112 342.64359095 163.93188395 347.77894117 152.37548828 350.12939453 C151.70517578 350.28923828 151.03486328 350.44908203 150.34423828 350.61376953 C131.77988693 354.80982155 112.7173001 354.43167935 93.80463028 354.39804554 C89.99125151 354.39289783 86.17788122 354.39770086 82.36450195 354.40081787 C75.966779 354.40443244 69.56910257 354.39972501 63.17138672 354.39013672 C55.82831307 354.37925706 48.48535059 354.38278443 41.14227962 354.39378953 C34.77985925 354.40293465 28.41747187 354.40411276 22.05504704 354.39891219 C18.28036242 354.39583179 14.50572964 354.39527237 10.73104858 354.40198517 C-39.08034005 354.47837891 -39.08034005 354.47837891 -55.62451172 346.12939453 C-57.36174946 345.64368753 -59.11280523 345.20457545 -60.87451172 344.81689453 C-66.84754536 343.27284502 -71.52883494 340.53847407 -76.62451172 337.12939453 C-78.26419922 336.04658203 -78.26419922 336.04658203 -79.93701172 334.94189453 C-80.82388672 334.34376953 -81.71076172 333.74564453 -82.62451172 333.12939453 C-84.04763672 332.32501953 -84.04763672 332.32501953 -85.49951172 331.50439453 C-86.55138672 330.82376953 -86.55138672 330.82376953 -87.62451172 330.12939453 C-87.62451172 329.46939453 -87.62451172 328.80939453 -87.62451172 328.12939453 C-88.94451172 327.46939453 -90.26451172 326.80939453 -91.62451172 326.12939453 C-91.62451172 325.46939453 -91.62451172 324.80939453 -91.62451172 324.12939453 C-92.61451172 323.79939453 -93.60451172 323.46939453 -94.62451172 323.12939453 C-94.62451172 322.46939453 -94.62451172 321.80939453 -94.62451172 321.12939453 C-95.61451172 320.79939453 -96.60451172 320.46939453 -97.62451172 320.12939453 C-100.26126718 317.01619563 -102.40704293 313.54932578 -104.62451172 310.12939453 C-105.21876953 309.22705078 -105.81302734 308.32470703 -106.42529297 307.39501953 C-110.89021892 300.22737787 -113.72639792 292.88519905 -116.36279297 284.91455078 C-117.09658653 282.71317009 -117.87480602 280.52387154 -118.76123047 278.37939453 C-119.60711888 276.17472608 -119.94396551 274.40948154 -120.12451172 272.06689453 C-120.44228443 268.59409271 -120.96675224 265.24111301 -121.62451172 261.81689453 C-122.48951581 256.66464808 -122.92519527 251.58718536 -123.17871094 246.37768555 C-123.24187657 245.08278245 -123.24187657 245.08278245 -123.30631828 243.7617197 C-123.82420981 232.00248679 -123.76857317 220.23738718 -123.75732422 208.46923828 C-123.75800007 205.94259125 -123.75897242 203.41594429 -123.76022339 200.88929749 C-123.76187274 194.95916744 -123.75842702 189.02905543 -123.75307262 183.09892803 C-123.74931726 178.4074975 -123.75065067 173.71608796 -123.75488281 169.0246582 C-123.76072701 162.48523421 -123.76156681 155.94583023 -123.75832748 149.4064045 C-123.75766779 146.94083209 -123.75845249 144.4752588 -123.76080704 142.00968742 C-123.78911005 104.06232691 -123.78911005 104.06232691 -120.81201172 88.25439453 C-120.63605469 87.28679199 -120.46009766 86.31918945 -120.27880859 85.32226562 C-118.28412798 74.74016552 -115.32359835 64.84456968 -110.62451172 55.12939453 C-110.34091797 54.48873047 -110.05732422 53.84806641 -109.76513672 53.18798828 C-106.8858133 46.9368256 -102.79283975 41.57590128 -98.62451172 36.12939453 C-97.99158203 35.28763672 -97.35865234 34.44587891 -96.70654297 33.57861328 C-94.43941691 30.91165636 -92.03950124 28.82064495 -89.31201172 26.62939453 C-88.40837891 25.89720703 -87.50474609 25.16501953 -86.57373047 24.41064453 C-80.77346534 19.92408183 -75.1726986 16.14741669 -68.49951172 13.06689453 C-67.75958984 12.72255371 -67.01966797 12.37821289 -66.25732422 12.0234375 C-59.8743373 9.11945358 -53.41770551 6.88577432 -46.62451172 5.12939453 C-45.81626953 4.91669922 -45.00802734 4.70400391 -44.17529297 4.48486328 C-39.37401811 3.32015612 -34.6144436 2.75303563 -29.69091797 2.37548828 C-27.56466724 2.24043199 -27.56466724 2.24043199 -25.62451172 1.12939453 C-17.12393063 -0.00285612 -8.55950111 -0.01436014 0 0 Z M1.37548828 27.12939453 C1.27842863 28.72973166 1.25177214 30.33437595 1.25244045 31.93765354 C1.2504494 32.98466326 1.24845836 34.03167298 1.24640697 35.11041027 C1.24931981 36.27478192 1.25223266 37.43915357 1.25523376 38.6388092 C1.25437934 39.86472934 1.25352491 41.09064947 1.2526446 42.3537187 C1.25127636 45.77195261 1.25442403 49.19012997 1.25942266 52.60835707 C1.2637237 56.28867382 1.26228098 59.96898869 1.26152039 63.64930725 C1.26099493 70.0308429 1.26414398 76.41236836 1.26975822 82.79390144 C1.27787031 92.02063299 1.28048814 101.24735959 1.28174622 110.47409432 C1.2839372 125.44228638 1.29059852 140.410473 1.30004883 155.37866211 C1.30922176 169.92260714 1.31630317 184.4665507 1.32055664 199.01049805 C1.32081936 199.906334 1.32108209 200.80216995 1.32135277 201.72515244 C1.32265777 206.21910317 1.32392149 210.71305392 1.32516468 215.20700467 C1.33553872 252.51447179 1.35315828 289.82193274 1.37548828 327.12939453 C17.79771255 327.24699226 34.21979707 327.33475213 50.64234257 327.38845539 C58.27025112 327.41407049 65.8978958 327.4488945 73.52563477 327.5065918 C80.18582582 327.55694574 86.84582552 327.58880625 93.50620168 327.59983701 C97.02218368 327.60626952 100.53761897 327.62102182 104.05342293 327.65804482 C132.15789776 327.94197703 160.74601693 325.4815992 182.12939453 305.33251953 C182.87060547 304.60548828 183.61181641 303.87845703 184.37548828 303.12939453 C184.94138672 302.58798828 185.50728516 302.04658203 186.09033203 301.48876953 C207.96212836 278.51468108 205.85653209 238.16066652 205.77392578 209.09423828 C205.77595676 206.50850849 205.77887658 203.92277927 205.78262329 201.33705139 C205.78699783 195.96820969 205.78107681 190.5995329 205.76660156 185.23071289 C205.75028035 179.10825816 205.75558845 172.98610352 205.77208078 166.86365598 C205.78756951 160.86327774 205.78563433 154.8630409 205.77693558 148.86264229 C205.77496858 146.35902423 205.77726576 143.85539822 205.78437424 141.35178947 C205.81314216 128.38252508 205.44411137 115.57738704 204.05761719 102.67456055 C203.9440708 101.60006873 203.83052441 100.52557692 203.71353722 99.41852474 C201.9498158 84.58705276 198.2288861 70.28242554 189.37548828 58.12939453 C188.88218018 57.41509277 188.38887207 56.70079102 187.88061523 55.96484375 C177.80247495 41.44798946 162.06486765 34.39772024 145.37548828 30.12939453 C144.57755859 29.91669922 143.77962891 29.70400391 142.95751953 29.48486328 C138.13791846 28.29915611 133.34521028 27.74037912 128.40025043 27.36448479 C126.46593183 27.21414587 124.53251571 27.05134334 122.60062695 26.87246895 C115.66251502 26.23599086 108.80447556 25.98580521 101.83959961 26 C100.21541107 25.99737152 100.21541107 25.99737152 98.55841064 25.99468994 C95.02476337 25.9903332 91.49116719 25.99318513 87.95751953 25.99658203 C85.48841848 25.99590776 83.0193175 25.9949367 80.55021667 25.99368286 C75.40041465 25.99221475 70.25063006 25.99433389 65.10083008 25.99902344 C58.48510019 26.00475329 51.86941059 26.00141568 45.25368214 25.99545097 C40.16755363 25.99184949 35.0814348 25.99298146 29.99530602 25.99557877 C27.55393151 25.99624748 25.11255613 25.99542155 22.67118263 25.99309921 C19.27677679 25.99057592 15.88243792 25.99440717 12.48803711 26 C11.47255295 25.99797577 10.45706879 25.99595154 9.41081238 25.99386597 C8.49280853 25.99668579 7.57480469 25.99950562 6.62898254 26.00241089 C5.42591571 26.00297643 5.42591571 26.00297643 4.1985445 26.00355339 C2.35570604 25.93026538 2.35570604 25.93026538 1.37548828 27.12939453 Z M-72.62451172 47.12939453 C-72.62451172 47.78939453 -72.62451172 48.44939453 -72.62451172 49.12939453 C-73.51203125 49.51224609 -73.51203125 49.51224609 -74.41748047 49.90283203 C-85.0700297 55.82300983 -89.66974967 72.51438012 -92.90684128 83.49020386 C-97.64013474 100.89661109 -97.07511698 119.15749001 -97.02748823 137.03910637 C-97.01975035 140.86889087 -97.02697553 144.69865674 -97.03164673 148.52844238 C-97.03706406 154.95292096 -97.03001972 161.37729518 -97.015625 167.80175781 C-96.9993063 175.16873813 -97.0045977 182.53546911 -97.02110422 189.90244341 C-97.0348352 196.29297239 -97.03658277 202.68342749 -97.02878821 209.0739665 C-97.0241747 212.86212196 -97.02330772 216.6501613 -97.03339767 220.43830872 C-97.09595101 247.63808179 -95.6130898 271.79405301 -82.62451172 296.12939453 C-81.96451172 296.12939453 -81.30451172 296.12939453 -80.62451172 296.12939453 C-80.37701172 296.86287109 -80.12951172 297.59634766 -79.87451172 298.35205078 C-76.11506398 306.70507372 -67.4898121 312.05990477 -59.62451172 316.12939453 C-58.361875 316.79068359 -58.361875 316.79068359 -57.07373047 317.46533203 C-46.69531376 322.53922464 -36.0659779 324.85812051 -24.62451172 326.12939453 C-24.62451172 228.11939453 -24.62451172 130.10939453 -24.62451172 29.12939453 C-41.62707918 29.12939453 -59.90285707 35.60201766 -72.62451172 47.12939453 Z " fill="#090909" transform="translate(275.62451171875,34.87060546875)"/>
<path d="M0 0 C3.75212276 2.01502889 5.63644095 3.45466142 8 7 C8.3359375 9.9609375 8.3359375 9.9609375 8.375 13.375 C8.40335937 14.49648437 8.43171875 15.61796875 8.4609375 16.7734375 C7.62304183 22.6387072 3.09443627 26.01054928 -1 30 C-1.556875 30.598125 -2.11375 31.19625 -2.6875 31.8125 C-4 33 -4 33 -6 33 C-6 33.66 -6 34.32 -6 35 C-7.375 36.625 -7.375 36.625 -9 38 C-9.66 38 -10.32 38 -11 38 C-11.268125 38.639375 -11.53625 39.27875 -11.8125 39.9375 C-13 42 -13 42 -16 43 C-16 43.66 -16 44.32 -16 45 C-18.375 47.625 -18.375 47.625 -21 50 C-21.66 50 -22.32 50 -23 50 C-23 50.66 -23 51.32 -23 52 C-23.99 52.66 -24.98 53.32 -26 54 C-24.4975457 57.5432211 -22.43747735 59.77071524 -19.6875 62.4375 C-18.92824219 63.17871094 -18.16898437 63.91992188 -17.38671875 64.68359375 C-16.59910156 65.44800781 -15.81148438 66.21242188 -15 67 C-14.26910156 67.73992187 -13.53820312 68.47984375 -12.78515625 69.2421875 C-10.43278061 71.57146829 -8.03772176 73.82539064 -5.609375 76.07421875 C-3.98904957 77.61141673 -2.36927161 79.14919197 -0.75 80.6875 C0.07757813 81.43966797 0.90515625 82.19183594 1.7578125 82.96679688 C6.6610043 87.68913324 8.96887756 90.9026413 9.14379883 97.81030273 C8.82913453 102.60185464 8.00790064 105.04249439 4.5 108.375 C-0.06157733 110.49287519 -4.04028584 110.70385382 -9 110 C-11.3046875 108.9765625 -11.3046875 108.9765625 -13 108 C-13 107.34 -13 106.68 -13 106 C-14.32 105.34 -15.64 104.68 -17 104 C-17 103.34 -17 102.68 -17 102 C-17.99 101.67 -18.98 101.34 -20 101 C-20 100.34 -20 99.68 -20 99 C-20.58910156 98.73832031 -21.17820312 98.47664063 -21.78515625 98.20703125 C-24.11785434 96.9357725 -25.60354368 95.59769469 -27.4375 93.6875 C-28.04335938 93.06359375 -28.64921875 92.4396875 -29.2734375 91.796875 C-30.12808594 90.90742188 -30.12808594 90.90742188 -31 90 C-32.2684375 88.7315625 -32.2684375 88.7315625 -33.5625 87.4375 C-34.366875 86.633125 -35.17125 85.82875 -36 85 C-36.54140625 84.48179687 -37.0828125 83.96359375 -37.640625 83.4296875 C-39.12966666 81.98935281 -40.56877193 80.49779682 -42 79 C-42 78.34 -42 77.68 -42 77 C-42.87978516 76.59394531 -42.87978516 76.59394531 -43.77734375 76.1796875 C-48.55917808 73.64170162 -53.17919112 69.64603816 -56 65 C-56 64.34 -56 63.68 -56 63 C-56.66 63 -57.32 63 -58 63 C-59.23802836 60.52394327 -59.34590964 58.64092188 -59.5 55.875 C-59.5721875 54.96492188 -59.644375 54.05484375 -59.71875 53.1171875 C-57.86348882 45.07100043 -48.37898 38.21865022 -42.70703125 32.5390625 C-41.83858078 31.66728363 -40.97013031 30.79550476 -40.07536316 29.89730835 C-38.25215414 28.06906638 -36.42761463 26.24215036 -34.60180664 24.41650391 C-31.80522226 21.61771653 -29.01675219 18.81100708 -26.22851562 16.00390625 C-24.45101028 14.22346956 -22.67303206 12.44350481 -20.89453125 10.6640625 C-19.64601128 9.40476425 -19.64601128 9.40476425 -18.37226868 8.12002563 C-17.59433456 7.34516815 -16.81640045 6.57031067 -16.01489258 5.77197266 C-15.33429276 5.08994781 -14.65369293 4.40792297 -13.95246887 3.70523071 C-9.72177748 0.01026532 -5.56077633 -0.88758545 0 0 Z " fill="#0A0A0A" transform="translate(383,157)"/>
<path d="M0 0 C0.66 0.99 1.32 1.98 2 3 C1.0409375 3.433125 1.0409375 3.433125 0.0625 3.875 C-2.15206079 4.82823451 -2.15206079 4.82823451 -3 7 C-3.66 6.34 -4.32 5.68 -5 5 C-3.35 3.35 -1.7 1.7 0 0 Z " fill="#4B4B4B" transform="translate(462,335)"/>
<path d="M0 0 C2.31 1.98 4.62 3.96 7 6 C4 7 4 7 2 7 C1.34 4.69 0.68 2.38 0 0 Z " fill="#464646" transform="translate(370,227)"/>
<path d="" fill="#000000" transform="translate(0,0)"/>
<path d="" fill="#000000" transform="translate(0,0)"/>
<path d="" fill="#000000" transform="translate(0,0)"/>
<path d="" fill="#FFFFFF" transform="translate(0,0)"/>
<path d="" fill="#000000" transform="translate(0,0)"/>
</svg>
